<svg width="202" height="24" viewBox="0 0 202 24" fill="none" xmlns="http://www.w3.org/2000/svg">
<path d="M48.5616 1.648C50.3056 1.648 51.6736 2.008 52.6656 2.728C53.6736 3.432 54.1776 4.536 54.1776 6.04C54.1776 6.952 53.9696 7.744 53.5536 8.416C53.1376 9.088 52.5536 9.616 51.8016 10C51.0656 10.384 50.1936 10.6 49.1856 10.648L48.8496 9.448C50.0176 9.48 51.0656 9.688 51.9936 10.072C52.9216 10.456 53.6576 10.992 54.2016 11.68C54.7456 12.368 55.0176 13.184 55.0176 14.128C55.0176 14.992 54.8576 15.736 54.5376 16.36C54.2176 16.968 53.7856 17.472 53.2416 17.872C52.6976 18.256 52.0816 18.544 51.3936 18.736C50.7056 18.912 49.9936 19 49.2576 19H44.0976V1.648H48.5616ZM49.0416 9.256C50.0016 9.256 50.6976 8.992 51.1296 8.464C51.5616 7.92 51.7776 7.264 51.7776 6.496C51.7776 5.584 51.4976 4.92 50.9376 4.504C50.3776 4.088 49.6256 3.88 48.6816 3.88H46.4256V9.256H49.0416ZM49.1376 16.84C49.7776 16.84 50.3616 16.744 50.8896 16.552C51.4336 16.36 51.8576 16.064 52.1616 15.664C52.4816 15.264 52.6416 14.76 52.6416 14.152C52.6416 13.48 52.4576 12.952 52.0896 12.568C51.7376 12.184 51.2816 11.912 50.7216 11.752C50.1616 11.576 49.5856 11.488 48.9936 11.488H46.4256V16.84H49.1376ZM57.5175 13.936C57.5175 12.944 57.7495 12.048 58.2135 11.248C58.6935 10.448 59.3495 9.816 60.1815 9.352C61.0135 8.888 61.9575 8.656 63.0135 8.656C64.1015 8.656 65.0535 8.888 65.8695 9.352C66.6855 9.816 67.3175 10.448 67.7655 11.248C68.2135 12.048 68.4375 12.944 68.4375 13.936C68.4375 14.928 68.2135 15.832 67.7655 16.648C67.3175 17.448 66.6775 18.08 65.8455 18.544C65.0295 19.008 64.0775 19.24 62.9895 19.24C61.9335 19.24 60.9895 19.024 60.1575 18.592C59.3415 18.144 58.6935 17.528 58.2135 16.744C57.7495 15.944 57.5175 15.008 57.5175 13.936ZM59.7495 13.96C59.7495 14.6 59.8935 15.184 60.1815 15.712C60.4695 16.224 60.8535 16.632 61.3335 16.936C61.8295 17.24 62.3735 17.392 62.9655 17.392C63.5895 17.392 64.1415 17.24 64.6215 16.936C65.1175 16.632 65.5015 16.224 65.7735 15.712C66.0455 15.184 66.1815 14.6 66.1815 13.96C66.1815 13.32 66.0455 12.744 65.7735 12.232C65.5015 11.704 65.1175 11.288 64.6215 10.984C64.1415 10.664 63.5895 10.504 62.9655 10.504C62.3575 10.504 61.8055 10.664 61.3095 10.984C60.8295 11.304 60.4455 11.728 60.1575 12.256C59.8855 12.768 59.7495 13.336 59.7495 13.96ZM75.4916 19.24C74.5796 19.24 73.7476 19.024 72.9956 18.592C72.2596 18.144 71.6756 17.52 71.2436 16.72C70.8116 15.904 70.5956 14.968 70.5956 13.912C70.5956 12.808 70.8196 11.864 71.2676 11.08C71.7316 10.296 72.3556 9.696 73.1396 9.28C73.9236 8.864 74.8036 8.656 75.7796 8.656C76.5636 8.656 77.3076 8.824 78.0116 9.16C78.7316 9.496 79.2916 9.96 79.6916 10.552L79.5956 11.344V0.423999H81.8036V19H79.5716V16.528L79.8116 17.152C79.3476 17.76 78.7476 18.264 78.0116 18.664C77.2756 19.048 76.4356 19.24 75.4916 19.24ZM76.1876 17.344C76.7796 17.344 77.3076 17.24 77.7716 17.032C78.2356 16.808 78.6196 16.504 78.9236 16.12C79.2276 15.736 79.4436 15.28 79.5716 14.752V12.88C79.4436 12.4 79.2116 11.984 78.8756 11.632C78.5556 11.264 78.1636 10.976 77.6996 10.768C77.2516 10.544 76.7476 10.432 76.1876 10.432C75.5796 10.432 75.0196 10.584 74.5076 10.888C74.0116 11.176 73.6116 11.576 73.3076 12.088C73.0036 12.6 72.8516 13.192 72.8516 13.864C72.8516 14.52 73.0036 15.112 73.3076 15.64C73.6116 16.152 74.0196 16.568 74.5316 16.888C75.0436 17.192 75.5956 17.344 76.1876 17.344ZM86.5262 23.776L93.0782 9.064H95.1422L88.7342 23.776H86.5262ZM88.9742 19.072L84.1982 9.064H86.7182L90.7262 17.944L88.9742 19.072ZM100.33 19.192C99.6256 19.192 98.9376 19.072 98.2656 18.832C97.6096 18.576 97.0656 18.2 96.6336 17.704L97.5696 16.408C97.9856 16.808 98.4096 17.112 98.8416 17.32C99.2896 17.512 99.7296 17.608 100.162 17.608C100.482 17.608 100.778 17.568 101.05 17.488C101.322 17.408 101.538 17.28 101.698 17.104C101.874 16.912 101.962 16.656 101.962 16.336C101.962 15.984 101.842 15.704 101.602 15.496C101.378 15.288 101.082 15.12 100.714 14.992C100.362 14.864 99.9856 14.744 99.5856 14.632C98.7696 14.36 98.1456 13.984 97.7136 13.504C97.2816 13.024 97.0656 12.44 97.0656 11.752C97.0656 11.224 97.1936 10.736 97.4496 10.288C97.7216 9.824 98.1136 9.448 98.6256 9.16C99.1536 8.872 99.8016 8.728 100.57 8.728C101.258 8.728 101.874 8.816 102.418 8.992C102.962 9.152 103.474 9.424 103.954 9.808L103.066 11.2C102.778 10.896 102.434 10.672 102.034 10.528C101.634 10.384 101.274 10.304 100.954 10.288C100.682 10.272 100.418 10.312 100.162 10.408C99.9216 10.504 99.7216 10.64 99.5616 10.816C99.4016 10.992 99.3216 11.2 99.3216 11.44C99.3216 11.776 99.4336 12.048 99.6576 12.256C99.8816 12.464 100.17 12.632 100.522 12.76C100.89 12.872 101.25 12.992 101.602 13.12C102.098 13.264 102.538 13.456 102.922 13.696C103.306 13.936 103.61 14.232 103.834 14.584C104.074 14.936 104.194 15.376 104.194 15.904C104.194 16.496 104.05 17.048 103.762 17.56C103.49 18.056 103.066 18.456 102.49 18.76C101.93 19.048 101.21 19.192 100.33 19.192ZM107.319 19V0.423999H109.503V11.368L109.455 10.96C109.791 10.304 110.303 9.76 110.991 9.328C111.695 8.896 112.519 8.68 113.463 8.68C114.407 8.68 115.175 8.96 115.767 9.52C116.375 10.064 116.687 10.776 116.703 11.656V19H114.447V12.448C114.431 11.904 114.271 11.464 113.967 11.128C113.679 10.776 113.223 10.6 112.599 10.6C112.023 10.6 111.503 10.768 111.039 11.104C110.575 11.424 110.207 11.864 109.935 12.424C109.679 12.984 109.551 13.624 109.551 14.344V19H107.319ZM124.713 19.24C123.785 19.24 122.937 19.04 122.169 18.64C121.417 18.24 120.817 17.656 120.369 16.888C119.937 16.104 119.721 15.152 119.721 14.032C119.721 12.928 119.953 11.976 120.417 11.176C120.881 10.36 121.497 9.736 122.265 9.304C123.049 8.872 123.905 8.656 124.833 8.656C125.761 8.656 126.545 8.872 127.185 9.304C127.825 9.72 128.313 10.216 128.649 10.792L128.505 11.176L128.721 9.064H130.785V19H128.553V16.408L128.793 16.984C128.729 17.144 128.585 17.352 128.361 17.608C128.153 17.848 127.865 18.096 127.497 18.352C127.145 18.608 126.737 18.824 126.273 19C125.809 19.16 125.289 19.24 124.713 19.24ZM125.313 17.392C125.873 17.392 126.377 17.288 126.825 17.08C127.273 16.872 127.641 16.584 127.929 16.216C128.233 15.832 128.441 15.376 128.553 14.848V12.904C128.425 12.424 128.201 12.008 127.881 11.656C127.561 11.288 127.177 11.008 126.729 10.816C126.281 10.608 125.785 10.504 125.241 10.504C124.649 10.504 124.105 10.648 123.609 10.936C123.113 11.224 122.713 11.624 122.409 12.136C122.121 12.648 121.977 13.248 121.977 13.936C121.977 14.576 122.129 15.16 122.433 15.688C122.737 16.216 123.145 16.632 123.657 16.936C124.169 17.24 124.721 17.392 125.313 17.392ZM140.503 19.24C139.751 19.24 139.023 19.064 138.319 18.712C137.631 18.36 137.095 17.888 136.711 17.296L136.855 16.6V23.776H134.647V8.92H136.567L136.879 11.464L136.639 10.768C137.119 10.16 137.727 9.656 138.463 9.256C139.199 8.856 140.023 8.656 140.935 8.656C141.863 8.656 142.695 8.88 143.431 9.328C144.183 9.776 144.775 10.4 145.207 11.2C145.639 12 145.855 12.936 145.855 14.008C145.855 15.08 145.623 16.008 145.159 16.792C144.695 17.576 144.055 18.184 143.239 18.616C142.439 19.032 141.527 19.24 140.503 19.24ZM140.071 17.464C140.711 17.464 141.295 17.32 141.823 17.032C142.367 16.728 142.799 16.32 143.119 15.808C143.439 15.28 143.599 14.688 143.599 14.032C143.599 13.36 143.447 12.768 143.143 12.256C142.839 11.728 142.431 11.312 141.919 11.008C141.423 10.704 140.863 10.552 140.239 10.552C139.663 10.552 139.143 10.664 138.679 10.888C138.215 11.112 137.831 11.424 137.527 11.824C137.223 12.208 137.007 12.656 136.879 13.168V14.824C136.959 15.336 137.151 15.792 137.455 16.192C137.759 16.592 138.135 16.904 138.583 17.128C139.047 17.352 139.543 17.464 140.071 17.464ZM153.482 19.24C152.346 19.24 151.37 19.016 150.554 18.568C149.738 18.104 149.106 17.48 148.658 16.696C148.226 15.896 148.01 14.984 148.01 13.96C148.01 12.984 148.258 12.096 148.754 11.296C149.25 10.496 149.914 9.856 150.746 9.376C151.578 8.896 152.506 8.656 153.53 8.656C154.842 8.656 155.93 9.04 156.794 9.808C157.658 10.576 158.242 11.632 158.546 12.976L150.362 15.856L149.834 14.536L156.554 12.088L156.074 12.4C155.882 11.872 155.562 11.416 155.114 11.032C154.666 10.632 154.082 10.432 153.362 10.432C152.754 10.432 152.21 10.584 151.73 10.888C151.25 11.176 150.874 11.576 150.602 12.088C150.33 12.6 150.194 13.184 150.194 13.84C150.194 14.528 150.338 15.136 150.626 15.664C150.914 16.176 151.306 16.584 151.802 16.888C152.314 17.176 152.89 17.32 153.53 17.32C153.962 17.32 154.378 17.24 154.778 17.08C155.194 16.92 155.578 16.712 155.93 16.456L156.962 18.112C156.466 18.448 155.906 18.72 155.282 18.928C154.674 19.136 154.074 19.24 153.482 19.24Z" fill="url(#paint0_linear_0_1)"/>
<path d="M9 1L9 21" stroke="#FF921B" stroke-width="1.5" stroke-linecap="round"/>
<path d="M5 3L5 19" stroke="#FF921B" stroke-width="2" stroke-linecap="round"/>
<path d="M1.25 5L1.25 17" stroke="#FF921B" stroke-width="2.5" stroke-linecap="round"/>
<line x1="9" y1="10.5" x2="29" y2="10.5" stroke="#FF921B" stroke-width="3"/>
<line x1="0.75" y1="-0.75" x2="19.25" y2="-0.75" transform="matrix(4.37114e-08 1 1 -4.37114e-08 193 1)" stroke="#FF921B" stroke-width="1.5" stroke-linecap="round"/>
<path d="M196.5 3L196.5 19" stroke="#FF921B" stroke-width="2" stroke-linecap="round"/>
<path d="M200.5 5L200.5 17" stroke="#FF921B" stroke-width="2.5" stroke-linecap="round"/>
<line x1="192" y1="11.5" x2="172" y2="11.5" stroke="#FF921B" stroke-width="3"/>
<defs>
<linearGradient id="paint0_linear_0_1" x1="29" y1="13" x2="172" y2="13" gradientUnits="userSpaceOnUse">
<stop stop-color="#F66844"/>
<stop offset="1" stop-color="#FF921B" stop-opacity="0.5"/>
</linearGradient>
</defs>
</svg>
